<mxfile host="Electron" modified="2024-08-05T03:00:45.271Z" agent="Mozilla/5.0 (Windows NT 10.0; Win64; x64) AppleWebKit/537.36 (KHTML, like Gecko) draw.io/24.0.4 Chrome/120.0.6099.109 Electron/28.1.0 Safari/537.36" etag="3enk-ZXTrEMMZPOTJZO8" version="24.0.4" type="device">
  <diagram name="第 1 页" id="OixxFrNOTcnE9LDFzAgu">
    <mxGraphModel dx="1265" dy="1587" grid="1" gridSize="10" guides="1" tooltips="1" connect="1" arrows="1" fold="1" page="1" pageScale="1" pageWidth="1169" pageHeight="827" background="#D6CBCB" math="0" shadow="0">
      <root>
        <mxCell id="0" />
        <mxCell id="1" parent="0" />
        <mxCell id="g7ZWh883WfCquwsNuPWS-22" value="" style="rounded=1;whiteSpace=wrap;html=1;fillColor=#FFCE9F;dashed=1;dashPattern=12 12;strokeWidth=2;strokeColor=none;shadow=1;" parent="1" vertex="1">
          <mxGeometry x="195" y="27.5" width="730" height="245" as="geometry" />
        </mxCell>
        <mxCell id="9N7Yw_b5-xZxr5LR7VDQ-1" value="" style="rounded=1;whiteSpace=wrap;html=1;gradientColor=none;fillColor=#BDD9C8;arcSize=8;movable=1;resizable=1;rotatable=1;deletable=1;editable=1;locked=0;connectable=1;strokeColor=none;" parent="1" vertex="1">
          <mxGeometry x="220" y="-770" width="680" height="450" as="geometry" />
        </mxCell>
        <mxCell id="9N7Yw_b5-xZxr5LR7VDQ-2" value="&lt;b&gt;&lt;font style=&quot;font-size: 26px;&quot; color=&quot;#0d0d0d&quot;&gt;Frontend&lt;/font&gt;&lt;/b&gt;" style="text;strokeColor=none;align=center;fillColor=none;html=1;verticalAlign=middle;whiteSpace=wrap;rounded=0;movable=1;resizable=1;rotatable=1;deletable=1;editable=1;locked=0;connectable=1;" parent="1" vertex="1">
          <mxGeometry x="250" y="-760" width="140" height="30" as="geometry" />
        </mxCell>
        <mxCell id="9N7Yw_b5-xZxr5LR7VDQ-3" value="" style="rounded=0;whiteSpace=wrap;html=1;fillColor=#fad7ac;strokeColor=#000000;movable=1;resizable=1;rotatable=1;deletable=1;editable=1;locked=0;connectable=1;" parent="1" vertex="1">
          <mxGeometry x="310" y="-720" width="500" height="80" as="geometry" />
        </mxCell>
        <mxCell id="9N7Yw_b5-xZxr5LR7VDQ-4" value="&lt;font style=&quot;font-size: 20px;&quot; color=&quot;#080808&quot;&gt;RAS&lt;/font&gt;" style="rounded=0;whiteSpace=wrap;html=1;fillColor=#b1ddf0;strokeColor=#10739e;fontSize=20;" parent="1" vertex="1">
          <mxGeometry x="340" y="-690" width="80" height="40" as="geometry" />
        </mxCell>
        <mxCell id="9N7Yw_b5-xZxr5LR7VDQ-5" value="&lt;font style=&quot;font-size: 20px;&quot; color=&quot;#080808&quot;&gt;BTB&lt;/font&gt;" style="rounded=0;whiteSpace=wrap;html=1;fillColor=#b1ddf0;strokeColor=#10739e;fontSize=20;" parent="1" vertex="1">
          <mxGeometry x="460" y="-690" width="80" height="40" as="geometry" />
        </mxCell>
        <mxCell id="9N7Yw_b5-xZxr5LR7VDQ-6" value="&lt;font style=&quot;font-size: 20px;&quot; color=&quot;#080808&quot;&gt;BHT&lt;/font&gt;" style="rounded=0;whiteSpace=wrap;html=1;fillColor=#b1ddf0;strokeColor=#10739e;fontSize=20;" parent="1" vertex="1">
          <mxGeometry x="580" y="-690" width="80" height="40" as="geometry" />
        </mxCell>
        <mxCell id="9N7Yw_b5-xZxr5LR7VDQ-7" value="&lt;font style=&quot;font-size: 20px;&quot; color=&quot;#080808&quot;&gt;PHT&lt;/font&gt;" style="rounded=0;whiteSpace=wrap;html=1;fillColor=#b1ddf0;strokeColor=#10739e;fontSize=20;" parent="1" vertex="1">
          <mxGeometry x="700" y="-690" width="80" height="40" as="geometry" />
        </mxCell>
        <mxCell id="9N7Yw_b5-xZxr5LR7VDQ-9" value="&lt;font style=&quot;font-size: 16px;&quot; color=&quot;#000000&quot;&gt;&lt;b&gt;Branch Predict Unit&lt;/b&gt;&lt;/font&gt;" style="text;strokeColor=none;align=center;fillColor=none;html=1;verticalAlign=middle;whiteSpace=wrap;rounded=0;" parent="1" vertex="1">
          <mxGeometry x="370" y="-720" width="160" height="30" as="geometry" />
        </mxCell>
        <mxCell id="9N7Yw_b5-xZxr5LR7VDQ-10" value="" style="whiteSpace=wrap;html=1;fillColor=#668CBD;strokeColor=#000000;fontColor=#ffffff;" parent="1" vertex="1">
          <mxGeometry x="310" y="-610" width="500" height="110" as="geometry" />
        </mxCell>
        <mxCell id="9N7Yw_b5-xZxr5LR7VDQ-11" value="&lt;font style=&quot;font-size: 16px;&quot; color=&quot;#000000&quot;&gt;&lt;b&gt;Instruction Fetch Unit&lt;/b&gt;&lt;/font&gt;" style="text;strokeColor=none;align=center;fillColor=none;html=1;verticalAlign=middle;whiteSpace=wrap;rounded=0;" parent="1" vertex="1">
          <mxGeometry x="380" y="-610" width="170" height="30" as="geometry" />
        </mxCell>
        <mxCell id="9N7Yw_b5-xZxr5LR7VDQ-12" value="&lt;font color=&quot;#000000&quot; style=&quot;font-size: 20px;&quot;&gt;Instruction Cache&lt;/font&gt;" style="whiteSpace=wrap;html=1;fillColor=#b1ddf0;strokeColor=none;" parent="1" vertex="1">
          <mxGeometry x="580" y="-570" width="120" height="50" as="geometry" />
        </mxCell>
        <mxCell id="9N7Yw_b5-xZxr5LR7VDQ-15" value="&lt;font size=&quot;1&quot; color=&quot;#000000&quot; style=&quot;&quot;&gt;&lt;b style=&quot;font-size: 18px;&quot;&gt;2-Way Decoder&lt;/b&gt;&lt;/font&gt;" style="whiteSpace=wrap;html=1;fillColor=#B89BC4;strokeColor=#000000;" parent="1" vertex="1">
          <mxGeometry x="310" y="-400" width="500" height="50" as="geometry" />
        </mxCell>
        <mxCell id="v0avsc7RBEA6WFCqqq-d-2" value="&lt;font color=&quot;#000000&quot; style=&quot;font-size: 20px;&quot;&gt;MMU&lt;/font&gt;" style="whiteSpace=wrap;html=1;fillColor=#b1ddf0;strokeColor=none;" parent="1" vertex="1">
          <mxGeometry x="410" y="-570" width="120" height="50" as="geometry" />
        </mxCell>
        <mxCell id="v0avsc7RBEA6WFCqqq-d-3" value="&lt;font color=&quot;#000000&quot; style=&quot;font-size: 16px;&quot;&gt;&lt;b&gt;Decoder Buffer&lt;/b&gt;&lt;/font&gt;" style="whiteSpace=wrap;html=1;fillColor=#f8cecc;strokeColor=#000000;" parent="1" vertex="1">
          <mxGeometry x="310" y="-470" width="500" height="40" as="geometry" />
        </mxCell>
        <mxCell id="v0avsc7RBEA6WFCqqq-d-5" value="" style="rounded=1;whiteSpace=wrap;html=1;strokeColor=none;align=center;verticalAlign=middle;fontFamily=Helvetica;fontSize=12;fillColor=#C1B8DE;arcSize=7;" parent="1" vertex="1">
          <mxGeometry x="220" y="-300" width="680" height="320" as="geometry" />
        </mxCell>
        <mxCell id="v0avsc7RBEA6WFCqqq-d-6" value="&lt;b&gt;&lt;font style=&quot;font-size: 26px;&quot; color=&quot;#0d0d0d&quot;&gt;Rename &amp;amp; Dispatch&lt;/font&gt;&lt;/b&gt;" style="text;strokeColor=none;align=center;fillColor=none;html=1;verticalAlign=middle;whiteSpace=wrap;rounded=0;movable=1;resizable=1;rotatable=1;deletable=1;editable=1;locked=0;connectable=1;" parent="1" vertex="1">
          <mxGeometry x="255" y="-290" width="275" height="30" as="geometry" />
        </mxCell>
        <mxCell id="v0avsc7RBEA6WFCqqq-d-9" value="" style="rounded=1;whiteSpace=wrap;html=1;strokeColor=none;align=center;verticalAlign=middle;fontFamily=Helvetica;fontSize=12;fillColor=#cce5ff;arcSize=12;" parent="1" vertex="1">
          <mxGeometry x="220" y="40" width="110" height="220" as="geometry" />
        </mxCell>
        <mxCell id="v0avsc7RBEA6WFCqqq-d-10" value="" style="rounded=1;whiteSpace=wrap;html=1;strokeColor=none;align=center;verticalAlign=middle;fontFamily=Helvetica;fontSize=12;fillColor=#E6E8BE;arcSize=11;" parent="1" vertex="1">
          <mxGeometry x="760" y="40" width="140" height="220" as="geometry" />
        </mxCell>
        <mxCell id="v0avsc7RBEA6WFCqqq-d-11" value="" style="rounded=1;whiteSpace=wrap;html=1;strokeColor=none;align=center;verticalAlign=middle;fontFamily=Helvetica;fontSize=12;fillColor=#cdeb8b;arcSize=12;" parent="1" vertex="1">
          <mxGeometry x="550" y="40" width="140" height="220" as="geometry" />
        </mxCell>
        <mxCell id="v0avsc7RBEA6WFCqqq-d-13" value="&lt;font color=&quot;#0d0d0d&quot;&gt;&lt;b&gt;ALU 1&lt;/b&gt;&lt;/font&gt;" style="text;strokeColor=none;align=center;fillColor=none;html=1;verticalAlign=middle;whiteSpace=wrap;rounded=0;movable=1;resizable=1;rotatable=1;deletable=1;editable=1;locked=0;connectable=1;fontSize=20;" parent="1" vertex="1">
          <mxGeometry x="225" y="40" width="85" height="30" as="geometry" />
        </mxCell>
        <mxCell id="v0avsc7RBEA6WFCqqq-d-14" value="&lt;b style=&quot;font-size: 20px;&quot;&gt;&lt;font style=&quot;font-size: 20px;&quot; color=&quot;#0d0d0d&quot;&gt;LSU&lt;/font&gt;&lt;/b&gt;" style="text;strokeColor=none;align=center;fillColor=none;html=1;verticalAlign=middle;whiteSpace=wrap;rounded=0;movable=1;resizable=1;rotatable=1;deletable=1;editable=1;locked=0;connectable=1;fontSize=20;" parent="1" vertex="1">
          <mxGeometry x="760" y="40" width="80" height="30" as="geometry" />
        </mxCell>
        <mxCell id="v0avsc7RBEA6WFCqqq-d-15" value="&lt;b style=&quot;font-size: 20px;&quot;&gt;&lt;font style=&quot;font-size: 20px;&quot; color=&quot;#0d0d0d&quot;&gt;MDU&lt;/font&gt;&lt;/b&gt;" style="text;strokeColor=none;align=center;fillColor=none;html=1;verticalAlign=middle;whiteSpace=wrap;rounded=0;movable=1;resizable=1;rotatable=1;deletable=1;editable=1;locked=0;connectable=1;fontSize=20;" parent="1" vertex="1">
          <mxGeometry x="549" y="40" width="80" height="30" as="geometry" />
        </mxCell>
        <mxCell id="v0avsc7RBEA6WFCqqq-d-20" value="&lt;font color=&quot;#000000&quot; style=&quot;font-size: 20px;&quot;&gt;ALU&lt;/font&gt;" style="whiteSpace=wrap;html=1;fillColor=#668CBD;strokeColor=#006EAF;fontColor=#ffffff;fontStyle=1" parent="1" vertex="1">
          <mxGeometry x="240" y="135" width="70" height="50" as="geometry" />
        </mxCell>
        <mxCell id="v0avsc7RBEA6WFCqqq-d-4" value="&lt;font color=&quot;#000000&quot; style=&quot;font-size: 16px;&quot;&gt;&lt;b&gt;Rename Buffer&lt;/b&gt;&lt;/font&gt;" style="whiteSpace=wrap;html=1;fillColor=#f8cecc;strokeColor=#b85450;" parent="1" vertex="1">
          <mxGeometry x="420" y="-240" width="465" height="40" as="geometry" />
        </mxCell>
        <mxCell id="v0avsc7RBEA6WFCqqq-d-24" value="" style="whiteSpace=wrap;html=1;fillColor=#fad7ac;strokeColor=#b46504;rounded=0;" parent="1" vertex="1">
          <mxGeometry x="240" y="-240" width="160" height="160" as="geometry" />
        </mxCell>
        <mxCell id="v0avsc7RBEA6WFCqqq-d-25" value="&lt;font style=&quot;font-size: 16px;&quot; color=&quot;#000000&quot;&gt;&lt;b&gt;ReOrder Buffer&lt;/b&gt;&lt;/font&gt;" style="text;strokeColor=none;align=center;fillColor=none;html=1;verticalAlign=middle;whiteSpace=wrap;rounded=0;" parent="1" vertex="1">
          <mxGeometry x="245" y="-235" width="155" height="30" as="geometry" />
        </mxCell>
        <mxCell id="v0avsc7RBEA6WFCqqq-d-26" value="&lt;font color=&quot;#000000&quot;&gt;&lt;span style=&quot;font-size: 20px;&quot;&gt;Data Table&lt;/span&gt;&lt;/font&gt;" style="whiteSpace=wrap;html=1;fillColor=#b1ddf0;strokeColor=#10739e;rounded=0;fontSize=20;" parent="1" vertex="1">
          <mxGeometry x="260" y="-140" width="120" height="40" as="geometry" />
        </mxCell>
        <mxCell id="v0avsc7RBEA6WFCqqq-d-27" value="&lt;font color=&quot;#000000&quot; style=&quot;font-size: 20px;&quot;&gt;Instruction Table&lt;/font&gt;" style="whiteSpace=wrap;html=1;fillColor=#b1ddf0;strokeColor=#10739e;rounded=0;fontSize=20;" parent="1" vertex="1">
          <mxGeometry x="260" y="-200" width="120" height="45" as="geometry" />
        </mxCell>
        <mxCell id="v0avsc7RBEA6WFCqqq-d-77" style="edgeStyle=orthogonalEdgeStyle;rounded=0;orthogonalLoop=1;jettySize=auto;html=1;entryX=0.5;entryY=0;entryDx=0;entryDy=0;fontFamily=Helvetica;fontSize=12;fontColor=default;strokeColor=#000000;" parent="1" source="v0avsc7RBEA6WFCqqq-d-29" target="v0avsc7RBEA6WFCqqq-d-36" edge="1">
          <mxGeometry relative="1" as="geometry" />
        </mxCell>
        <mxCell id="v0avsc7RBEA6WFCqqq-d-29" value="" style="whiteSpace=wrap;html=1;rounded=0;strokeColor=#b46504;align=center;verticalAlign=middle;fontFamily=Helvetica;fontSize=12;fontColor=default;fillColor=#fad7ac;" parent="1" vertex="1">
          <mxGeometry x="420" y="-180" width="465" height="100" as="geometry" />
        </mxCell>
        <mxCell id="v0avsc7RBEA6WFCqqq-d-28" value="&lt;font style=&quot;font-size: 16px;&quot; color=&quot;#000000&quot;&gt;&lt;b&gt;Rename&lt;/b&gt;&lt;/font&gt;" style="text;strokeColor=none;align=center;fillColor=none;html=1;verticalAlign=middle;whiteSpace=wrap;rounded=0;" parent="1" vertex="1">
          <mxGeometry x="420" y="-180" width="100" height="30" as="geometry" />
        </mxCell>
        <mxCell id="v0avsc7RBEA6WFCqqq-d-31" value="&lt;font style=&quot;font-size: 20px;&quot; color=&quot;#080808&quot;&gt;ARF&lt;/font&gt;" style="rounded=0;whiteSpace=wrap;html=1;fillColor=#b1ddf0;strokeColor=#10739e;fontSize=20;" parent="1" vertex="1">
          <mxGeometry x="440" y="-140" width="80" height="40" as="geometry" />
        </mxCell>
        <mxCell id="v0avsc7RBEA6WFCqqq-d-32" value="&lt;font style=&quot;font-size: 20px;&quot; color=&quot;#080808&quot;&gt;Rename RAT&lt;/font&gt;" style="rounded=0;whiteSpace=wrap;html=1;fillColor=#b1ddf0;strokeColor=#10739e;fontSize=20;" parent="1" vertex="1">
          <mxGeometry x="540" y="-140" width="150" height="40" as="geometry" />
        </mxCell>
        <mxCell id="v0avsc7RBEA6WFCqqq-d-34" value="&lt;font style=&quot;font-size: 20px;&quot; color=&quot;#080808&quot;&gt;Commit RAT&lt;/font&gt;" style="rounded=0;whiteSpace=wrap;html=1;fillColor=#b1ddf0;strokeColor=#10739e;fontSize=20;" parent="1" vertex="1">
          <mxGeometry x="715" y="-140" width="150" height="40" as="geometry" />
        </mxCell>
        <mxCell id="v0avsc7RBEA6WFCqqq-d-36" value="&lt;font color=&quot;#000000&quot;&gt;&lt;span style=&quot;font-size: 18px;&quot;&gt;&lt;b&gt;Dispatch&lt;/b&gt;&lt;/span&gt;&lt;/font&gt;" style="whiteSpace=wrap;html=1;fillColor=#B89BC4;strokeColor=#000000;" parent="1" vertex="1">
          <mxGeometry x="240" y="-50" width="640" height="50" as="geometry" />
        </mxCell>
        <mxCell id="v0avsc7RBEA6WFCqqq-d-42" value="&lt;font color=&quot;#000000&quot; style=&quot;font-size: 16px;&quot;&gt;&lt;b&gt;Issue Queue&lt;/b&gt;&lt;/font&gt;" style="whiteSpace=wrap;html=1;fillColor=#f8cecc;strokeColor=#b85450;" parent="1" vertex="1">
          <mxGeometry x="240" y="80" width="70" height="40" as="geometry" />
        </mxCell>
        <mxCell id="v0avsc7RBEA6WFCqqq-d-48" value="&lt;font color=&quot;#000000&quot; style=&quot;font-size: 16px;&quot;&gt;&lt;b&gt;Commit Queue&lt;/b&gt;&lt;/font&gt;" style="whiteSpace=wrap;html=1;fillColor=#f8cecc;strokeColor=#b85450;" parent="1" vertex="1">
          <mxGeometry x="240" y="200" width="70" height="40" as="geometry" />
        </mxCell>
        <mxCell id="v0avsc7RBEA6WFCqqq-d-50" value="&lt;font color=&quot;#000000&quot; style=&quot;font-size: 16px;&quot;&gt;&lt;b&gt;Issue Queue&lt;/b&gt;&lt;/font&gt;" style="whiteSpace=wrap;html=1;fillColor=#f8cecc;strokeColor=#b85450;" parent="1" vertex="1">
          <mxGeometry x="790" y="80" width="80" height="40" as="geometry" />
        </mxCell>
        <mxCell id="v0avsc7RBEA6WFCqqq-d-51" value="&lt;font color=&quot;#000000&quot; style=&quot;font-size: 16px;&quot;&gt;&lt;b&gt;Commit Queue&lt;/b&gt;&lt;/font&gt;" style="whiteSpace=wrap;html=1;fillColor=#f8cecc;strokeColor=#b85450;" parent="1" vertex="1">
          <mxGeometry x="790" y="200" width="80" height="40" as="geometry" />
        </mxCell>
        <mxCell id="v0avsc7RBEA6WFCqqq-d-52" value="&lt;font color=&quot;#000000&quot; style=&quot;font-size: 16px;&quot;&gt;&lt;b&gt;Issue Queue&lt;/b&gt;&lt;/font&gt;" style="whiteSpace=wrap;html=1;fillColor=#f8cecc;strokeColor=#b85450;" parent="1" vertex="1">
          <mxGeometry x="579" y="80" width="80" height="40" as="geometry" />
        </mxCell>
        <mxCell id="v0avsc7RBEA6WFCqqq-d-53" value="&lt;font color=&quot;#000000&quot; style=&quot;font-size: 16px;&quot;&gt;&lt;b&gt;Commit Queue&lt;/b&gt;&lt;/font&gt;" style="whiteSpace=wrap;html=1;fillColor=#f8cecc;strokeColor=#b85450;" parent="1" vertex="1">
          <mxGeometry x="579" y="200" width="80" height="40" as="geometry" />
        </mxCell>
        <mxCell id="g7ZWh883WfCquwsNuPWS-17" style="edgeStyle=orthogonalEdgeStyle;rounded=0;orthogonalLoop=1;jettySize=auto;html=1;exitX=0;exitY=0.5;exitDx=0;exitDy=0;entryX=0;entryY=0.5;entryDx=0;entryDy=0;jumpSize=16;strokeWidth=2;" parent="1" source="v0avsc7RBEA6WFCqqq-d-54" target="v0avsc7RBEA6WFCqqq-d-5" edge="1">
          <mxGeometry relative="1" as="geometry">
            <Array as="points">
              <mxPoint x="130" y="360" />
              <mxPoint x="130" y="-140" />
            </Array>
          </mxGeometry>
        </mxCell>
        <mxCell id="g7ZWh883WfCquwsNuPWS-30" style="edgeStyle=orthogonalEdgeStyle;rounded=0;orthogonalLoop=1;jettySize=auto;html=1;exitX=1;exitY=0.5;exitDx=0;exitDy=0;entryX=1;entryY=0.25;entryDx=0;entryDy=0;strokeWidth=2;" parent="1" source="v0avsc7RBEA6WFCqqq-d-54" target="9N7Yw_b5-xZxr5LR7VDQ-1" edge="1">
          <mxGeometry relative="1" as="geometry">
            <Array as="points">
              <mxPoint x="1030" y="360" />
              <mxPoint x="1030" y="-658" />
            </Array>
          </mxGeometry>
        </mxCell>
        <mxCell id="v0avsc7RBEA6WFCqqq-d-54" value="" style="rounded=1;whiteSpace=wrap;html=1;strokeColor=none;align=center;verticalAlign=middle;fontFamily=Helvetica;fontSize=12;fillColor=#BDD9C8;gradientColor=none;arcSize=8;" parent="1" vertex="1">
          <mxGeometry x="220" y="290" width="680" height="140" as="geometry" />
        </mxCell>
        <mxCell id="v0avsc7RBEA6WFCqqq-d-55" value="" style="edgeStyle=none;orthogonalLoop=1;jettySize=auto;html=1;rounded=0;fontFamily=Helvetica;fontSize=12;fontColor=default;strokeColor=#000000;exitX=0.5;exitY=1;exitDx=0;exitDy=0;entryX=0.5;entryY=0;entryDx=0;entryDy=0;" parent="1" source="9N7Yw_b5-xZxr5LR7VDQ-3" target="9N7Yw_b5-xZxr5LR7VDQ-10" edge="1">
          <mxGeometry width="80" relative="1" as="geometry">
            <mxPoint x="535" y="-630" as="sourcePoint" />
            <mxPoint x="615" y="-630" as="targetPoint" />
            <Array as="points" />
          </mxGeometry>
        </mxCell>
        <mxCell id="v0avsc7RBEA6WFCqqq-d-56" value="" style="edgeStyle=none;orthogonalLoop=1;jettySize=auto;html=1;rounded=0;fontFamily=Helvetica;fontSize=12;fontColor=default;strokeColor=#000000;exitX=0.5;exitY=1;exitDx=0;exitDy=0;entryX=0.5;entryY=0;entryDx=0;entryDy=0;" parent="1" edge="1">
          <mxGeometry width="80" relative="1" as="geometry">
            <mxPoint x="559.72" y="-500" as="sourcePoint" />
            <mxPoint x="559.72" y="-470" as="targetPoint" />
            <Array as="points" />
          </mxGeometry>
        </mxCell>
        <mxCell id="v0avsc7RBEA6WFCqqq-d-57" value="" style="edgeStyle=none;orthogonalLoop=1;jettySize=auto;html=1;rounded=0;fontFamily=Helvetica;fontSize=12;fontColor=default;strokeColor=#000000;exitX=0.5;exitY=1;exitDx=0;exitDy=0;entryX=0.5;entryY=0;entryDx=0;entryDy=0;" parent="1" edge="1">
          <mxGeometry width="80" relative="1" as="geometry">
            <mxPoint x="559.72" y="-430" as="sourcePoint" />
            <mxPoint x="559.72" y="-400" as="targetPoint" />
            <Array as="points" />
          </mxGeometry>
        </mxCell>
        <mxCell id="v0avsc7RBEA6WFCqqq-d-59" value="" style="edgeStyle=none;orthogonalLoop=1;jettySize=auto;html=1;rounded=0;fontFamily=Helvetica;fontSize=12;fontColor=default;strokeColor=#000000;exitX=0.5;exitY=1;exitDx=0;exitDy=0;" parent="1" edge="1">
          <mxGeometry width="80" relative="1" as="geometry">
            <mxPoint x="654.6700000000001" y="-200" as="sourcePoint" />
            <mxPoint x="655" y="-180" as="targetPoint" />
            <Array as="points" />
          </mxGeometry>
        </mxCell>
        <mxCell id="v0avsc7RBEA6WFCqqq-d-63" value="&lt;font color=&quot;#0d0d0d&quot;&gt;&lt;b&gt;Commit&lt;/b&gt;&lt;/font&gt;" style="text;strokeColor=none;align=center;fillColor=none;html=1;verticalAlign=middle;whiteSpace=wrap;rounded=0;movable=1;resizable=1;rotatable=1;deletable=1;editable=1;locked=0;connectable=1;fontSize=20;" parent="1" vertex="1">
          <mxGeometry x="235" y="290" width="85" height="30" as="geometry" />
        </mxCell>
        <mxCell id="v0avsc7RBEA6WFCqqq-d-64" value="" style="edgeStyle=none;orthogonalLoop=1;jettySize=auto;html=1;rounded=0;fontFamily=Helvetica;fontSize=12;fontColor=default;strokeColor=#000000;" parent="1" edge="1">
          <mxGeometry width="80" relative="1" as="geometry">
            <mxPoint x="274.86" y="120" as="sourcePoint" />
            <mxPoint x="275.02" y="135" as="targetPoint" />
            <Array as="points" />
          </mxGeometry>
        </mxCell>
        <mxCell id="v0avsc7RBEA6WFCqqq-d-65" value="" style="edgeStyle=none;orthogonalLoop=1;jettySize=auto;html=1;rounded=0;fontFamily=Helvetica;fontSize=12;fontColor=default;strokeColor=#000000;" parent="1" edge="1">
          <mxGeometry width="80" relative="1" as="geometry">
            <mxPoint x="274.86" y="185" as="sourcePoint" />
            <mxPoint x="275.02" y="200" as="targetPoint" />
            <Array as="points" />
          </mxGeometry>
        </mxCell>
        <mxCell id="v0avsc7RBEA6WFCqqq-d-68" value="&lt;font color=&quot;#000000&quot; style=&quot;font-size: 20px;&quot;&gt;&lt;b&gt;CSR&lt;/b&gt;&lt;/font&gt;" style="whiteSpace=wrap;html=1;fillColor=#fad7ac;strokeColor=#b46504;rounded=0;" parent="1" vertex="1">
          <mxGeometry x="245" y="340" width="90" height="50" as="geometry" />
        </mxCell>
        <mxCell id="v0avsc7RBEA6WFCqqq-d-69" value="" style="rounded=1;whiteSpace=wrap;html=1;strokeColor=none;align=center;verticalAlign=middle;fontFamily=Helvetica;fontSize=12;fillColor=#cce5ff;arcSize=12;" parent="1" vertex="1">
          <mxGeometry x="370" y="40" width="110" height="220" as="geometry" />
        </mxCell>
        <mxCell id="v0avsc7RBEA6WFCqqq-d-70" value="&lt;font color=&quot;#0d0d0d&quot;&gt;&lt;b&gt;ALU 2&lt;/b&gt;&lt;/font&gt;" style="text;strokeColor=none;align=center;fillColor=none;html=1;verticalAlign=middle;whiteSpace=wrap;rounded=0;movable=1;resizable=1;rotatable=1;deletable=1;editable=1;locked=0;connectable=1;fontSize=20;" parent="1" vertex="1">
          <mxGeometry x="375" y="40" width="85" height="30" as="geometry" />
        </mxCell>
        <mxCell id="v0avsc7RBEA6WFCqqq-d-71" value="&lt;font color=&quot;#000000&quot; style=&quot;font-size: 20px;&quot;&gt;ALU&lt;/font&gt;" style="whiteSpace=wrap;html=1;fillColor=#668CBD;strokeColor=#006EAF;fontColor=#ffffff;fontStyle=1" parent="1" vertex="1">
          <mxGeometry x="390" y="135" width="70" height="50" as="geometry" />
        </mxCell>
        <mxCell id="v0avsc7RBEA6WFCqqq-d-72" value="&lt;font color=&quot;#000000&quot; style=&quot;font-size: 16px;&quot;&gt;&lt;b&gt;Issue Queue&lt;/b&gt;&lt;/font&gt;" style="whiteSpace=wrap;html=1;fillColor=#f8cecc;strokeColor=#b85450;" parent="1" vertex="1">
          <mxGeometry x="390" y="80" width="70" height="40" as="geometry" />
        </mxCell>
        <mxCell id="v0avsc7RBEA6WFCqqq-d-73" value="&lt;font color=&quot;#000000&quot; style=&quot;font-size: 16px;&quot;&gt;&lt;b&gt;Commit Queue&lt;/b&gt;&lt;/font&gt;" style="whiteSpace=wrap;html=1;fillColor=#f8cecc;strokeColor=#b85450;" parent="1" vertex="1">
          <mxGeometry x="390" y="200" width="70" height="40" as="geometry" />
        </mxCell>
        <mxCell id="v0avsc7RBEA6WFCqqq-d-74" value="" style="edgeStyle=none;orthogonalLoop=1;jettySize=auto;html=1;rounded=0;fontFamily=Helvetica;fontSize=12;fontColor=default;strokeColor=#000000;" parent="1" edge="1">
          <mxGeometry width="80" relative="1" as="geometry">
            <mxPoint x="424.86" y="120" as="sourcePoint" />
            <mxPoint x="425.02" y="135" as="targetPoint" />
            <Array as="points" />
          </mxGeometry>
        </mxCell>
        <mxCell id="v0avsc7RBEA6WFCqqq-d-75" value="" style="edgeStyle=none;orthogonalLoop=1;jettySize=auto;html=1;rounded=0;fontFamily=Helvetica;fontSize=12;fontColor=default;strokeColor=#000000;" parent="1" edge="1">
          <mxGeometry width="80" relative="1" as="geometry">
            <mxPoint x="424.86" y="185" as="sourcePoint" />
            <mxPoint x="425.02" y="200" as="targetPoint" />
            <Array as="points" />
          </mxGeometry>
        </mxCell>
        <mxCell id="v0avsc7RBEA6WFCqqq-d-79" value="" style="edgeStyle=none;orthogonalLoop=1;jettySize=auto;html=1;rounded=0;labelBackgroundColor=default;strokeColor=#000000;align=center;verticalAlign=middle;fontFamily=Helvetica;fontSize=12;fontColor=default;endArrow=classic;shape=connector;" parent="1" edge="1">
          <mxGeometry width="80" relative="1" as="geometry">
            <mxPoint x="275" as="sourcePoint" />
            <mxPoint x="275" y="40" as="targetPoint" />
            <Array as="points" />
          </mxGeometry>
        </mxCell>
        <mxCell id="v0avsc7RBEA6WFCqqq-d-80" value="" style="edgeStyle=none;orthogonalLoop=1;jettySize=auto;html=1;rounded=0;labelBackgroundColor=default;strokeColor=#000000;align=center;verticalAlign=middle;fontFamily=Helvetica;fontSize=12;fontColor=default;endArrow=classic;shape=connector;" parent="1" edge="1">
          <mxGeometry width="80" relative="1" as="geometry">
            <mxPoint x="424.86" as="sourcePoint" />
            <mxPoint x="424.86" y="40" as="targetPoint" />
            <Array as="points" />
          </mxGeometry>
        </mxCell>
        <mxCell id="v0avsc7RBEA6WFCqqq-d-81" value="" style="edgeStyle=none;orthogonalLoop=1;jettySize=auto;html=1;rounded=0;labelBackgroundColor=default;strokeColor=#000000;align=center;verticalAlign=middle;fontFamily=Helvetica;fontSize=12;fontColor=default;endArrow=classic;shape=connector;" parent="1" edge="1">
          <mxGeometry width="80" relative="1" as="geometry">
            <mxPoint x="619.86" as="sourcePoint" />
            <mxPoint x="619.86" y="40" as="targetPoint" />
            <Array as="points" />
          </mxGeometry>
        </mxCell>
        <mxCell id="v0avsc7RBEA6WFCqqq-d-82" value="" style="edgeStyle=none;orthogonalLoop=1;jettySize=auto;html=1;rounded=0;labelBackgroundColor=default;strokeColor=#000000;align=center;verticalAlign=middle;fontFamily=Helvetica;fontSize=12;fontColor=default;endArrow=classic;shape=connector;" parent="1" edge="1">
          <mxGeometry width="80" relative="1" as="geometry">
            <mxPoint x="829.86" as="sourcePoint" />
            <mxPoint x="829.86" y="40" as="targetPoint" />
            <Array as="points" />
          </mxGeometry>
        </mxCell>
        <mxCell id="v0avsc7RBEA6WFCqqq-d-86" style="edgeStyle=orthogonalEdgeStyle;shape=connector;rounded=0;orthogonalLoop=1;jettySize=auto;html=1;entryX=0.5;entryY=0;entryDx=0;entryDy=0;labelBackgroundColor=default;strokeColor=#000000;align=center;verticalAlign=middle;fontFamily=Helvetica;fontSize=12;fontColor=default;endArrow=classic;movable=1;resizable=1;rotatable=1;deletable=1;editable=1;locked=0;connectable=1;" parent="1" source="9N7Yw_b5-xZxr5LR7VDQ-15" target="v0avsc7RBEA6WFCqqq-d-4" edge="1">
          <mxGeometry relative="1" as="geometry" />
        </mxCell>
        <mxCell id="v0avsc7RBEA6WFCqqq-d-87" value="" style="edgeStyle=none;orthogonalLoop=1;jettySize=auto;html=1;rounded=0;labelBackgroundColor=default;strokeColor=#000000;align=center;verticalAlign=middle;fontFamily=Helvetica;fontSize=12;fontColor=default;endArrow=classic;shape=connector;startArrow=classic;startFill=1;" parent="1" edge="1">
          <mxGeometry width="80" relative="1" as="geometry">
            <mxPoint x="274.83" y="260" as="sourcePoint" />
            <mxPoint x="274.83" y="290" as="targetPoint" />
            <Array as="points" />
          </mxGeometry>
        </mxCell>
        <mxCell id="v0avsc7RBEA6WFCqqq-d-88" value="" style="edgeStyle=none;orthogonalLoop=1;jettySize=auto;html=1;rounded=0;labelBackgroundColor=default;strokeColor=#000000;align=center;verticalAlign=middle;fontFamily=Helvetica;fontSize=12;fontColor=default;endArrow=classic;shape=connector;startArrow=classic;startFill=1;" parent="1" edge="1">
          <mxGeometry width="80" relative="1" as="geometry">
            <mxPoint x="424.83" y="260" as="sourcePoint" />
            <mxPoint x="424.83" y="290" as="targetPoint" />
            <Array as="points" />
          </mxGeometry>
        </mxCell>
        <mxCell id="g7ZWh883WfCquwsNuPWS-1" value="&lt;font color=&quot;#000000&quot; style=&quot;font-size: 20px;&quot;&gt;DCache&lt;/font&gt;" style="whiteSpace=wrap;html=1;fillColor=#60a917;strokeColor=#2D7600;fontColor=#ffffff;fontStyle=1" parent="1" vertex="1">
          <mxGeometry x="790" y="135" width="80" height="25" as="geometry" />
        </mxCell>
        <mxCell id="g7ZWh883WfCquwsNuPWS-2" value="&lt;font color=&quot;#000000&quot; style=&quot;font-size: 14px;&quot;&gt;StroeBUffer&lt;/font&gt;" style="whiteSpace=wrap;html=1;fillColor=#60a917;strokeColor=#2D7600;fontColor=#ffffff;fontStyle=1" parent="1" vertex="1">
          <mxGeometry x="790" y="160" width="80" height="25" as="geometry" />
        </mxCell>
        <mxCell id="g7ZWh883WfCquwsNuPWS-3" value="&lt;font color=&quot;#000000&quot;&gt;&lt;span style=&quot;font-size: 20px;&quot;&gt;Muler&lt;/span&gt;&lt;/font&gt;" style="whiteSpace=wrap;html=1;fillColor=#b3d19f;strokeColor=#006600;fontColor=#ffffff;fontStyle=1" parent="1" vertex="1">
          <mxGeometry x="579" y="135" width="80" height="25" as="geometry" />
        </mxCell>
        <mxCell id="g7ZWh883WfCquwsNuPWS-4" value="&lt;font color=&quot;#000000&quot; style=&quot;font-size: 20px;&quot;&gt;Diver&lt;/font&gt;" style="whiteSpace=wrap;html=1;fillColor=#b3d19f;strokeColor=#006600;fontColor=#ffffff;fontStyle=1" parent="1" vertex="1">
          <mxGeometry x="579" y="160" width="80" height="25" as="geometry" />
        </mxCell>
        <mxCell id="g7ZWh883WfCquwsNuPWS-7" value="" style="endArrow=classic;html=1;rounded=0;exitX=0.5;exitY=1;exitDx=0;exitDy=0;entryX=0.5;entryY=0;entryDx=0;entryDy=0;" parent="1" source="v0avsc7RBEA6WFCqqq-d-52" target="g7ZWh883WfCquwsNuPWS-3" edge="1">
          <mxGeometry width="50" height="50" relative="1" as="geometry">
            <mxPoint x="719" y="120" as="sourcePoint" />
            <mxPoint x="769" y="70" as="targetPoint" />
          </mxGeometry>
        </mxCell>
        <mxCell id="g7ZWh883WfCquwsNuPWS-8" value="" style="endArrow=classic;html=1;rounded=0;exitX=0.5;exitY=1;exitDx=0;exitDy=0;entryX=0.5;entryY=0;entryDx=0;entryDy=0;" parent="1" source="g7ZWh883WfCquwsNuPWS-4" target="v0avsc7RBEA6WFCqqq-d-53" edge="1">
          <mxGeometry width="50" height="50" relative="1" as="geometry">
            <mxPoint x="669" y="220" as="sourcePoint" />
            <mxPoint x="719" y="170" as="targetPoint" />
          </mxGeometry>
        </mxCell>
        <mxCell id="g7ZWh883WfCquwsNuPWS-9" value="" style="endArrow=classic;html=1;rounded=0;entryX=0.5;entryY=0;entryDx=0;entryDy=0;exitX=0.5;exitY=1;exitDx=0;exitDy=0;" parent="1" source="v0avsc7RBEA6WFCqqq-d-50" target="g7ZWh883WfCquwsNuPWS-1" edge="1">
          <mxGeometry width="50" height="50" relative="1" as="geometry">
            <mxPoint x="770" y="170" as="sourcePoint" />
            <mxPoint x="820" y="120" as="targetPoint" />
          </mxGeometry>
        </mxCell>
        <mxCell id="g7ZWh883WfCquwsNuPWS-10" value="" style="endArrow=classic;html=1;rounded=0;entryX=0.5;entryY=0;entryDx=0;entryDy=0;exitX=0.5;exitY=1;exitDx=0;exitDy=0;" parent="1" source="g7ZWh883WfCquwsNuPWS-2" target="v0avsc7RBEA6WFCqqq-d-51" edge="1">
          <mxGeometry width="50" height="50" relative="1" as="geometry">
            <mxPoint x="760" y="220" as="sourcePoint" />
            <mxPoint x="810" y="170" as="targetPoint" />
          </mxGeometry>
        </mxCell>
        <mxCell id="g7ZWh883WfCquwsNuPWS-11" value="&lt;font color=&quot;#000000&quot; style=&quot;font-size: 20px;&quot;&gt;&lt;b&gt;TLB_fix&lt;/b&gt;&lt;/font&gt;" style="whiteSpace=wrap;html=1;fillColor=#fad7ac;strokeColor=#b46504;rounded=0;" parent="1" vertex="1">
          <mxGeometry x="403" y="340" width="90" height="50" as="geometry" />
        </mxCell>
        <mxCell id="g7ZWh883WfCquwsNuPWS-12" value="&lt;font color=&quot;#000000&quot; style=&quot;font-size: 20px;&quot;&gt;&lt;b&gt;Cache_fix&lt;/b&gt;&lt;/font&gt;" style="whiteSpace=wrap;html=1;fillColor=#fad7ac;strokeColor=#b46504;rounded=0;" parent="1" vertex="1">
          <mxGeometry x="562" y="340" width="108" height="50" as="geometry" />
        </mxCell>
        <mxCell id="g7ZWh883WfCquwsNuPWS-13" value="&lt;span style=&quot;font-size: 20px;&quot;&gt;&lt;b&gt;Commit_fsm&lt;/b&gt;&lt;/span&gt;" style="whiteSpace=wrap;html=1;fillColor=#fad7ac;strokeColor=#b46504;rounded=0;" parent="1" vertex="1">
          <mxGeometry x="715" y="340" width="150" height="50" as="geometry" />
        </mxCell>
        <mxCell id="g7ZWh883WfCquwsNuPWS-14" value="" style="edgeStyle=none;orthogonalLoop=1;jettySize=auto;html=1;rounded=0;labelBackgroundColor=default;strokeColor=#000000;align=center;verticalAlign=middle;fontFamily=Helvetica;fontSize=12;fontColor=default;endArrow=classic;shape=connector;startArrow=classic;startFill=1;" parent="1" edge="1">
          <mxGeometry width="80" relative="1" as="geometry">
            <mxPoint x="619.8299999999999" y="260" as="sourcePoint" />
            <mxPoint x="619.8299999999999" y="290" as="targetPoint" />
            <Array as="points" />
          </mxGeometry>
        </mxCell>
        <mxCell id="g7ZWh883WfCquwsNuPWS-15" value="" style="edgeStyle=none;orthogonalLoop=1;jettySize=auto;html=1;rounded=0;labelBackgroundColor=default;strokeColor=#000000;align=center;verticalAlign=middle;fontFamily=Helvetica;fontSize=12;fontColor=default;endArrow=classic;shape=connector;startArrow=classic;startFill=1;" parent="1" edge="1">
          <mxGeometry width="80" relative="1" as="geometry">
            <mxPoint x="840" y="260" as="sourcePoint" />
            <mxPoint x="840" y="290" as="targetPoint" />
            <Array as="points" />
          </mxGeometry>
        </mxCell>
        <mxCell id="g7ZWh883WfCquwsNuPWS-20" style="edgeStyle=orthogonalEdgeStyle;rounded=0;orthogonalLoop=1;jettySize=auto;html=1;exitX=0;exitY=0.5;exitDx=0;exitDy=0;entryX=0;entryY=0.418;entryDx=0;entryDy=0;entryPerimeter=0;strokeWidth=2;" parent="1" source="v0avsc7RBEA6WFCqqq-d-54" edge="1">
          <mxGeometry relative="1" as="geometry">
            <mxPoint x="195" y="129.91000000000008" as="targetPoint" />
            <Array as="points">
              <mxPoint x="130" y="360" />
              <mxPoint x="130" y="130" />
            </Array>
          </mxGeometry>
        </mxCell>
        <mxCell id="g7ZWh883WfCquwsNuPWS-21" value="&lt;font style=&quot;font-size: 20px;&quot;&gt;&lt;b&gt;CDB&lt;/b&gt;&lt;/font&gt;" style="text;html=1;align=center;verticalAlign=middle;whiteSpace=wrap;rounded=0;" parent="1" vertex="1">
          <mxGeometry x="135" y="-130" width="60" height="30" as="geometry" />
        </mxCell>
        <mxCell id="g7ZWh883WfCquwsNuPWS-26" value="&lt;font style=&quot;font-size: 20px;&quot;&gt;&lt;b&gt;CDB&lt;/b&gt;&lt;/font&gt;" style="text;html=1;align=center;verticalAlign=middle;whiteSpace=wrap;rounded=0;" parent="1" vertex="1">
          <mxGeometry x="135" y="320" width="60" height="30" as="geometry" />
        </mxCell>
        <mxCell id="g7ZWh883WfCquwsNuPWS-28" style="edgeStyle=orthogonalEdgeStyle;rounded=0;orthogonalLoop=1;jettySize=auto;html=1;exitX=1;exitY=0.75;exitDx=0;exitDy=0;entryX=1;entryY=0.25;entryDx=0;entryDy=0;strokeWidth=2;" parent="1" source="g7ZWh883WfCquwsNuPWS-22" target="g7ZWh883WfCquwsNuPWS-22" edge="1">
          <mxGeometry relative="1" as="geometry">
            <Array as="points">
              <mxPoint x="1030" y="211" />
              <mxPoint x="1030" y="89" />
            </Array>
          </mxGeometry>
        </mxCell>
        <mxCell id="g7ZWh883WfCquwsNuPWS-29" value="&lt;font style=&quot;font-size: 20px;&quot;&gt;&lt;b&gt;Wake Up&lt;/b&gt;&lt;/font&gt;" style="text;html=1;align=center;verticalAlign=middle;whiteSpace=wrap;rounded=0;" parent="1" vertex="1">
          <mxGeometry x="925" y="220" width="105" height="30" as="geometry" />
        </mxCell>
        <mxCell id="g7ZWh883WfCquwsNuPWS-31" value="&lt;font style=&quot;font-size: 20px;&quot;&gt;&lt;b&gt;BPU update&lt;/b&gt;&lt;/font&gt;" style="text;html=1;align=center;verticalAlign=middle;whiteSpace=wrap;rounded=0;" parent="1" vertex="1">
          <mxGeometry x="900" y="-640" width="120" height="30" as="geometry" />
        </mxCell>
      </root>
    </mxGraphModel>
  </diagram>
</mxfile>
